<?xml version="1.0" ?><svg viewBox="0 0 64 64" xmlns="http://www.w3.org/2000/svg"><defs><style>.cls-1{fill:#aaf66f;}.cls-2{fill:#6d6e71;}.cls-3{fill:#48bf61;}.cls-4{fill:#414042;}.cls-5{fill:#01cadb;}.cls-6{fill:#a7a9ac;}.cls-7{fill:#01a2b0;}.cls-8{fill:none;}.cls-9{fill:#89f2ff;}.cls-10{fill:#014f3b;}</style></defs><g id="Flat"><g id="Stroke"><circle class="cls-1" cx="32" cy="32" r="29"/><path class="cls-2" d="M61,32a28.907,28.907,0,0,1-8.49,20.51L11.49,11.49A29.006,29.006,0,0,1,61,32Z"/><path class="cls-3" d="M17.681,30.851a9.8,9.8,0,0,1,13.135-6.727A13.513,13.513,0,1,1,39.486,48H18.6a8.6,8.6,0,0,1-.919-17.149Z"/><path class="cls-3" d="M17.681,30.851a9.8,9.8,0,0,1,13.135-6.727A13.513,13.513,0,1,1,39.486,48H18.6a8.6,8.6,0,0,1-.919-17.149Z"/><path class="cls-4" d="M39.486,20.971a13.455,13.455,0,0,0-8.67,3.153,9.785,9.785,0,0,0-6.842-.15L46.2,46.2a13.508,13.508,0,0,0-6.716-25.231Z"/><path class="cls-3" d="M51.988,51.988A28.964,28.964,0,0,1,12.012,12.012L11.5,11.5a28.993,28.993,0,1,0,41,41Z"/><path class="cls-5" d="M17.681,27.851a9.8,9.8,0,0,1,13.135-6.727A13.513,13.513,0,1,1,39.486,45H18.6a8.6,8.6,0,0,1-.919-17.149Z"/><path class="cls-2" d="M39.486,17.971a13.455,13.455,0,0,0-8.67,3.153,9.768,9.768,0,0,0-8.861.831l22.2,22.2a13.507,13.507,0,0,0-4.669-26.184Z"/><path class="cls-6" d="M39.486,17.971a13.455,13.455,0,0,0-8.67,3.153,9.784,9.784,0,0,0-11.478,3.258,9.767,9.767,0,0,1,9.478-1.258,13.509,13.509,0,0,1,19.17,18.862,13.511,13.511,0,0,0-8.5-24.015Z"/><path class="cls-7" d="M43.486,41H22.6a8.594,8.594,0,0,1-7.743-12.335A8.6,8.6,0,0,0,18.6,45H39.486a13.491,13.491,0,0,0,11.338-6.176A13.439,13.439,0,0,1,43.486,41Z"/><path class="cls-4" d="M43.486,41H41l3.155,3.155a13.571,13.571,0,0,0,4.3-2.58c.02-.017.04-.034.059-.052.229-.205.45-.419.665-.639.017-.018.035-.034.052-.052q.329-.342.632-.706c.067-.081.129-.165.194-.247.12-.151.239-.3.353-.459.1-.133.19-.269.281-.405.041-.061.081-.123.121-.184A13.437,13.437,0,0,1,43.486,41Z"/><path class="cls-2" d="M50.813,38.831a13.7,13.7,0,0,1-1.262.715,13.614,13.614,0,0,1-1.508,2.363c.086-.071.176-.138.261-.211q.249-.215.489-.442c.129-.123.262-.244.387-.372l0,0q.393-.407.752-.845l.123-.157c.06-.075.117-.152.176-.229q.273-.357.522-.732Z"/><path class="cls-1" d="M28.076,44.418c-1.315-4.383-5.1-8.287-5.1-8.287a23.988,23.988,0,0,0-5.1,8.287c-1.092,3.643.183,5.715,1.731,6.876a5.669,5.669,0,0,0,6.739,0C27.894,50.133,29.169,48.061,28.076,44.418Z"/><path class="cls-3" d="M21.607,48.294c-1.548-1.161-2.823-3.233-1.73-6.876a16.723,16.723,0,0,1,1.485-3.377,20.97,20.97,0,0,0-3.485,6.377c-1.093,3.643.182,5.715,1.73,6.876a5.669,5.669,0,0,0,6.739,0,5.15,5.15,0,0,0,1.969-2.981A5.669,5.669,0,0,1,21.607,48.294Z"/><line class="cls-8" x1="52.51" x2="11.49" y1="52.51" y2="11.49"/><path class="cls-9" d="M22.744,22.744l-.783-.783a9.89,9.89,0,0,0-2.623,2.421A9.8,9.8,0,0,1,22.744,22.744Z"/><path class="cls-6" d="M32,3a28.907,28.907,0,0,0-20.51,8.49l.522.522C17.1,7.619,23.254,4.5,30.5,4.5a29,29,0,0,1,29,29c0,7.246-3.119,13.4-7.512,18.488l.522.522A29.006,29.006,0,0,0,32,3Z"/><path class="cls-4" d="M39.743,24.873a3.927,3.927,0,0,0,3.8-3.75l.008-6.291c0-.023,0-.048,0-.072a3.808,3.808,0,0,0-7.615.072l.011,6.385A3.907,3.907,0,0,0,39.743,24.873Zm0-11.873a1.937,1.937,0,0,1,1.809,1.869l0,6.158a1.92,1.92,0,0,1-1.806,1.846,1.9,1.9,0,0,1-1.8-1.752l-.01-6.219A1.942,1.942,0,0,1,39.743,13Z"/><path class="cls-4" d="M34,25a1,1,0,0,0,0-2,5,5,0,0,1,0-10,1,1,0,0,0,0-2,7,7,0,0,0,0,14Z"/><path class="cls-4" d="M44,28a1,1,0,0,0,1-1,1,1,0,0,1,1.937-.351l-3.644,3.644A1,1,0,0,0,44,32h4a1,1,0,0,0,0-2H46.414l2.293-2.293A1,1,0,0,0,49,27a3,3,0,0,0-6,0A1,1,0,0,0,44,28Z"/><path class="cls-4" d="M12.218,10.8q-.732.682-1.414,1.414L51.782,53.2q.732-.682,1.414-1.414Z"/><path class="cls-10" d="M25,45.811l-1,.994V44a1,1,0,0,0-2,0v2.746l-.936-.935a1,1,0,0,0-1.414,1.414L22,49.575v9.654c.655.24,1.324.451,2,.644V49.634l2.409-2.409A1,1,0,0,0,25,45.811Z"/></g></g></svg>